<?xml version="1.0" encoding="UTF-8" standalone="no"?>
<!DOCTYPE svg PUBLIC "-//W3C//DTD SVG 1.1//EN" "http://www.w3.org/Graphics/SVG/1.1/DTD/svg11.dtd">
<svg width="100%" height="100%" viewBox="0 0 570 329" version="1.1" xmlns="http://www.w3.org/2000/svg" xmlns:xlink="http://www.w3.org/1999/xlink" xml:space="preserve" xmlns:serif="http://www.serif.com/" style="fill-rule:evenodd;clip-rule:evenodd;stroke-linecap:round;stroke-linejoin:round;stroke-miterlimit:1.5;">
    <g transform="matrix(1,0,0,1,-498.74,-1151.12)">
        <g transform="matrix(6.12323e-17,1,1,-6.12323e-17,-541.855,541.855)">
            <path d="M678.355,1055.18C849.884,1264 502.837,1415.07 671.431,1595.22" style="fill:none;stroke:black;stroke-width:29.17px;"/>
        </g>
        <g transform="matrix(0.85098,1.31919e-32,-1.31919e-32,0.85098,-314.748,120.132)">
            <path d="M1289.09,1433.24C1289.09,1478.15 1273.33,1516.38 1241.79,1547.91C1210.25,1579.45 1172.03,1595.22 1127.12,1595.22C1081.96,1595.22 1043.62,1579.45 1012.08,1547.91C980.544,1516.38 964.776,1478.15 964.776,1433.24L992.754,1433.24C992.754,1470.2 1005.82,1501.77 1031.96,1527.96C1058.1,1554.14 1089.82,1567.24 1127.12,1567.24C1164.18,1567.24 1195.77,1554.14 1221.91,1527.96C1248.05,1501.77 1261.12,1470.2 1261.12,1433.24L1289.09,1433.24ZM1615.99,1433.24L1347.63,1433.24C1347.63,1470.2 1360.69,1501.77 1386.83,1527.96C1412.97,1554.14 1444.69,1567.24 1481.99,1567.24C1519.05,1567.24 1550.64,1554.14 1576.78,1527.96C1602.92,1501.77 1615.99,1470.2 1615.99,1433.24Z" style="fill-rule:nonzero;stroke:black;stroke-width:5.72px;stroke-linecap:butt;stroke-miterlimit:1.41421;"/>
        </g>
    </g>
</svg>
