<svg width="352" height="343" viewBox="0 0 352 343" fill="none" xmlns="http://www.w3.org/2000/svg">
<path d="M312 338L240.867 249" stroke="white" stroke-width="10"/>
<path d="M176 330C270.19 330 347 257.491 347 167.5C347 77.5093 270.19 5 176 5C81.8102 5 5 77.5093 5 167.5C5 257.491 81.8102 330 176 330Z" stroke="white" stroke-width="10"/>
<path d="M234 160C234 189.036 209.169 213 178 213C146.831 213 122 189.036 122 160C122 130.964 146.831 107 178 107C209.169 107 234 130.964 234 160Z" stroke="white" stroke-width="10"/>
<ellipse cx="176" cy="160.5" rx="16" ry="14.5" fill="white"/>
<rect x="243.565" y="237.622" width="15.438" height="21.1202" transform="rotate(47.4758 243.565 237.622)" fill="white"/>
</svg>
